<svg width="1920" height="14" viewBox="0 0 1920 14" fill="none" xmlns="http://www.w3.org/2000/svg">
<path opacity="0.6" d="M0 13C7.15894 13 7.15894 1 14.3179 1C21.4768 1 21.4768 13 28.6357 13C35.7947 13 35.7947 1 42.9368 1C50.096 1 50.096 13 57.2379 13C64.397 13 64.397 1 71.539 1C78.6981 1 78.6981 13 85.8566 13C93.0157 13 93.0157 1 100.175 1C107.333 1 107.333 13 114.492 13C121.652 13 121.652 1 128.811 1C135.969 1 135.969 13 143.128 13C150.287 13 150.287 1 157.446 1C164.605 1 164.605 13 171.764 13C178.923 13 178.923 1 186.065 1C193.224 1 193.224 13 200.366 13C207.525 13 207.525 1 214.667 1C221.826 1 221.826 13 228.985 13C236.144 13 236.144 1 243.303 1C250.462 1 250.462 13 257.621 13C264.78 13 264.78 1 271.939 1C279.098 1 279.098 13 286.257 13C293.416 13 293.416 1 300.575 1C307.733 1 307.733 13 314.892 13C322.051 13 322.051 1 329.194 1C336.353 1 336.353 13 343.495 13C350.654 13 350.654 1 357.796 1C364.955 1 364.955 13 372.113 13M372.537 13C379.696 13 379.696 1 386.855 1C394.014 1 394.014 13 401.173 13C408.332 13 408.332 1 415.474 1C422.633 1 422.633 13 429.775 13C436.934 13 436.934 1 444.076 1C451.235 1 451.235 13 458.394 13C465.553 13 465.553 1 472.712 1C479.871 1 479.871 13 487.03 13C494.189 13 494.189 1 501.348 1C508.507 1 508.507 13 515.666 13C522.825 13 522.825 1 529.984 1C537.142 1 537.142 13 544.301 13C551.46 13 551.46 1 558.603 1C565.762 1 565.762 13 572.904 13C580.063 13 580.063 1 587.205 1C594.364 1 594.364 13 601.522 13C608.681 13 608.681 1 615.84 1C622.999 1 622.999 13 630.158 13C637.317 13 637.317 1 644.476 1C651.635 1 651.635 13 658.794 13C665.953 13 665.953 1 673.112 1C680.271 1 680.271 13 687.43 13C694.589 13 694.589 1 701.731 1C708.89 1 708.89 13 716.032 13C723.191 13 723.191 1 730.333 1C737.492 1 737.492 13 744.651 13C751.81 13 751.81 1 758.969 1C766.128 1 766.128 13 773.287 13C780.446 13 780.446 1 787.605 1C794.763 1 794.764 13 801.906 13C809.065 13 809.065 1 816.207 1C823.366 1 823.366 13 830.508 13C837.667 13 837.667 1 844.825 1C851.985 1 851.985 13 859.144 13C866.302 13 866.302 1 873.461 1C880.62 1 880.62 13 887.779 13C894.938 13 894.938 1 902.097 1C909.256 1 909.256 13 916.415 13C923.574 13 923.574 1 930.733 1C937.892 1 937.892 13 945.034 13C952.193 13 952.193 1 959.335 1C966.494 1 966.494 13 973.636 13C980.795 13 980.795 1 987.954 1C995.113 1 995.113 13 1002.27 13C1009.43 13 1009.43 1 1016.59 1C1023.75 1 1023.75 13 1030.91 13C1038.07 13 1038.07 1 1045.23 1C1052.38 1 1052.38 13 1059.54 13C1066.7 13 1066.7 1 1073.86 1C1081.02 1 1081.02 13 1088.16 13C1095.32 13 1095.32 1 1102.46 1C1109.62 1 1109.62 13 1116.76 13C1123.92 13 1123.92 1 1131.08 1C1138.24 1 1138.24 13 1145.4 13M1146.27 13C1153.43 13 1153.43 1 1160.59 1C1167.75 1 1167.75 13 1174.9 13C1182.06 13 1182.06 1 1189.21 1C1196.36 1 1196.36 13 1203.51 13C1210.67 13 1210.67 1 1217.81 1C1224.97 1 1224.97 13 1232.13 13C1239.28 13 1239.28 1 1246.44 1C1253.6 1 1253.6 13 1260.76 13C1267.92 13 1267.92 1 1275.08 1C1282.24 1 1282.24 13 1289.4 13C1296.56 13 1296.56 1 1303.71 1C1310.87 1 1310.87 13 1318.03 13C1325.19 13 1325.19 1 1332.33 1C1339.49 1 1339.49 13 1346.63 13C1353.79 13 1353.79 1 1360.94 1C1368.1 1 1368.1 13 1375.25 13C1382.41 13 1382.41 1 1389.57 1C1396.73 1 1396.73 13 1403.89 13C1411.05 13 1411.05 1 1418.21 1C1425.37 1 1425.37 13 1432.53 13C1439.68 13 1439.68 1 1446.84 1C1454 1 1454 13 1461.16 13C1468.32 13 1468.32 1 1475.46 1C1482.62 1 1482.62 13 1489.76 13C1496.92 13 1496.92 1 1504.06 1C1511.22 1 1511.22 13 1518.38 13C1525.54 13 1525.54 1 1532.7 1M1533.57 1C1540.73 1 1540.73 13 1547.89 13C1555.05 13 1555.05 1 1562.2 1C1569.36 1 1569.36 13 1576.51 13C1583.66 13 1583.66 1 1590.81 1C1597.97 1 1597.97 13 1605.11 13C1612.27 13 1612.27 1 1619.43 1C1626.58 1 1626.58 13 1633.74 13C1640.9 13 1640.9 1 1648.06 1C1655.22 1 1655.22 13 1662.38 13C1669.54 13 1669.54 1 1676.7 1C1683.86 1 1683.86 13 1691.01 13C1698.17 13 1698.17 1 1705.33 1C1712.49 1 1712.49 13 1719.63 13C1726.79 13 1726.79 1 1733.93 1C1741.09 1 1741.09 13 1748.24 13C1755.39 13 1755.39 1 1762.55 1C1769.71 1 1769.71 13 1776.87 13C1784.03 13 1784.03 1 1791.19 1C1798.35 1 1798.35 13 1805.51 13C1812.67 13 1812.67 1 1819.83 1C1826.98 1 1826.98 13 1834.14 13C1841.3 13 1841.3 1 1848.46 1C1855.62 1 1855.62 13 1862.76 13C1869.92 13 1869.92 1 1877.06 1C1884.22 1 1884.22 13 1891.36 13C1898.52 13 1898.52 1 1905.68 1C1912.84 1 1912.84 13 1920 13" stroke="#F5F6F7" stroke-miterlimit="10" stroke-linecap="square"/>
</svg>
